<svg width="12" height="8" viewBox="0 0 12 8" fill="none" xmlns="http://www.w3.org/2000/svg">
<path id="Arrow 1" d="M6.75 5.49976C6.75 5.08554 6.41421 4.74976 6 4.74976C5.58579 4.74976 5.25 5.08554 5.25 5.49976H6.75ZM5.46967 7.03009C5.76256 7.32298 6.23744 7.32298 6.53033 7.03009L11.3033 2.25711C11.5962 1.96422 11.5962 1.48935 11.3033 1.19645C11.0104 0.903561 10.5355 0.903561 10.2426 1.19645L6 5.4391L1.75736 1.19645C1.46447 0.903561 0.989592 0.903561 0.696699 1.19645C0.403805 1.48935 0.403805 1.96422 0.696699 2.25711L5.46967 7.03009ZM5.25 5.49976V6.49976H6.75V5.49976H5.25Z" fill="white"/>
</svg>
