<svg xmlns="http://www.w3.org/2000/svg" width="512" height="512" viewBox="0 0 512 512" fill="none"><path d="M239.467 391.573L256 397.013V309.333H170.667C167.838 309.333 165.125 308.21 163.124 306.209C161.124 304.209 160 301.496 160 298.667C160 295.838 161.124 293.125 163.124 291.124C165.125 289.124 167.838 288 170.667 288H256C256.014 279.553 258.536 271.3 263.245 264.287C267.954 257.274 274.64 251.817 282.453 248.607C290.267 245.397 298.858 244.578 307.137 246.255C315.416 247.932 323.011 252.029 328.96 258.027C344.64 273.28 341.333 290.987 341.333 320C346.946 320.01 352.501 321.126 357.681 323.286C362.861 325.446 367.563 328.607 371.52 332.587C377.118 330.873 383.009 330.329 388.826 330.99C394.643 331.65 400.262 333.501 405.333 336.427V74.6667H106.667V437.333H185.067C183.979 430.275 184.726 423.056 187.237 416.37C189.747 409.684 193.937 403.757 199.402 399.16C204.867 394.563 211.424 391.45 218.441 390.121C225.458 388.792 232.699 389.293 239.467 391.573ZM268.8 134.4C267.103 132.137 266.374 129.292 266.774 126.492C267.174 123.691 268.67 121.164 270.933 119.467C273.197 117.769 276.041 117.041 278.842 117.441C281.642 117.841 284.169 119.337 285.867 121.6L309.333 152.853L332.8 121.6C334.497 119.337 337.024 117.841 339.825 117.441C342.625 117.041 345.47 117.769 347.733 119.467C349.997 121.164 351.493 123.691 351.893 126.492C352.293 129.292 351.564 132.137 349.867 134.4L322.667 170.667L349.867 206.933C351.055 208.518 351.779 210.403 351.957 212.375C352.135 214.348 351.76 216.332 350.874 218.104C349.988 219.876 348.626 221.366 346.941 222.407C345.256 223.448 343.314 224 341.333 224C334.08 224 333.653 220.907 309.333 188.48C284.587 221.333 284.48 224 277.333 224C275.352 224 273.411 223.448 271.726 222.407C270.04 221.366 268.679 219.876 267.793 218.104C266.907 216.332 266.532 214.348 266.71 212.375C266.888 210.403 267.611 208.518 268.8 206.933L296 170.667L268.8 134.4ZM160 128C160 125.171 161.124 122.458 163.124 120.458C165.125 118.457 167.838 117.333 170.667 117.333C173.496 117.333 176.209 118.457 178.209 120.458C180.21 122.458 181.333 125.171 181.333 128V181.333C181.333 186.991 183.581 192.418 187.582 196.418C191.583 200.419 197.009 202.667 202.667 202.667C208.325 202.667 213.751 200.419 217.752 196.418C221.752 192.418 224 186.991 224 181.333V128C224 125.171 225.124 122.458 227.124 120.458C229.125 118.457 231.838 117.333 234.667 117.333C237.496 117.333 240.209 118.457 242.209 120.458C244.21 122.458 245.333 125.171 245.333 128V181.333C245.333 192.649 240.838 203.502 232.837 211.503C224.835 219.505 213.983 224 202.667 224C191.351 224 180.498 219.505 172.497 211.503C164.495 203.502 160 192.649 160 181.333V128ZM170.667 245.333H234.667C237.496 245.333 240.209 246.457 242.209 248.458C244.21 250.458 245.333 253.171 245.333 256C245.333 258.829 244.21 261.542 242.209 263.543C240.209 265.543 237.496 266.667 234.667 266.667H170.667C167.838 266.667 165.125 265.543 163.124 263.543C161.124 261.542 160 258.829 160 256C160 253.171 161.124 250.458 163.124 248.458C165.125 246.457 167.838 245.333 170.667 245.333ZM170.667 330.667H213.333C216.162 330.667 218.875 331.791 220.876 333.791C222.876 335.791 224 338.504 224 341.333C224 344.162 222.876 346.876 220.876 348.876C218.875 350.876 216.162 352 213.333 352H170.667C167.838 352 165.125 350.876 163.124 348.876C161.124 346.876 160 344.162 160 341.333C160 338.504 161.124 335.791 163.124 333.791C165.125 331.791 167.838 330.667 170.667 330.667ZM362.667 10.6667H149.333C138.017 10.6667 127.165 15.162 119.163 23.1635C111.162 31.1651 106.667 42.0175 106.667 53.3334H405.333C405.333 42.0175 400.838 31.1651 392.837 23.1635C384.835 15.162 373.983 10.6667 362.667 10.6667ZM195.2 458.667H106.667C106.667 469.983 111.162 480.835 119.163 488.837C127.165 496.838 138.017 501.333 149.333 501.333H244.48C194.453 458.667 198.4 462.187 195.2 458.667Z" fill="white"></path><path d="M441.707 368.96C438.724 365.995 434.93 363.977 430.804 363.161C426.677 362.346 422.402 362.768 418.515 364.375C414.628 365.983 411.302 368.703 408.957 372.195C406.612 375.687 405.351 379.794 405.333 384V373.333C405.31 367.685 403.046 362.276 399.04 358.293C396.057 355.328 392.264 353.311 388.137 352.495C384.011 351.679 379.735 352.101 375.848 353.709C371.961 355.316 368.636 358.036 366.29 361.528C363.945 365.02 362.684 369.127 362.667 373.333V362.667C362.643 357.018 360.38 351.609 356.373 347.627C353.39 344.661 349.597 342.644 345.471 341.828C341.344 341.012 337.069 341.435 333.181 343.042C329.294 344.649 325.969 347.37 323.624 350.861C321.278 354.353 320.018 358.461 320 362.667C320 282.56 322.24 281.28 313.707 272.96C310.724 269.995 306.93 267.977 302.804 267.161C298.677 266.346 294.402 266.768 290.515 268.375C286.628 269.983 283.302 272.703 280.957 276.195C278.612 279.687 277.351 283.794 277.333 288V426.667L232.533 411.733C228.143 410.491 223.462 410.766 219.247 412.515C215.033 414.263 211.532 417.383 209.31 421.368C207.089 425.354 206.278 429.973 207.008 434.477C207.738 438.981 209.967 443.107 213.333 446.187L277.333 501.333H448C448 377.387 450.453 377.493 441.707 368.96Z" fill="white"></path></svg>