<svg width="36" height="35" viewBox="0 0 36 35" fill="none" xmlns="http://www.w3.org/2000/svg">
<g id="SVG" clip-path="url(#clip0_74_32)">
<g id="Clip path group">
<mask id="mask0_74_32" style="mask-type:luminance" maskUnits="userSpaceOnUse" x="0" y="0" width="36" height="35">
<g id="clip0_290_100">
<path id="Vector" d="M35.5 0H0.5V35H35.5V0Z" fill="white"/>
</g>
</mask>
<g mask="url(#mask0_74_32)">
<g id="Group">
<path id="Vector_2" d="M3.61739 12.3765C3.61739 11.8102 3.15829 11.3511 2.592 11.3511H1.52539C0.959102 11.3511 0.5 11.8102 0.5 12.3765C0.5 12.9428 0.959102 13.4019 1.52539 13.4019H2.592C3.15829 13.4019 3.61739 12.9428 3.61739 12.3765ZM4.15176 4.14544C5.07461 4.14544 5.53439 3.00719 4.85128 2.37015L4.07123 1.64267C3.65704 1.2565 3.00817 1.2792 2.62201 1.69325C2.23578 2.10744 2.25848 2.75624 2.6726 3.14247C3.30287 3.65694 3.52606 4.14544 4.15176 4.14544ZM3.45265 20.7395L2.6726 21.4669C2.25841 21.8531 2.23578 22.502 2.62194 22.9161C3.00831 23.3304 3.65704 23.3529 4.07123 22.9668L4.85128 22.2394C5.26547 21.8531 5.2881 21.2043 4.90193 20.7901C4.51563 20.3759 3.86684 20.3533 3.45265 20.7395ZM34.4746 11.2076H33.408C32.8417 11.2076 32.3826 11.6667 32.3826 12.233C32.3826 12.7993 32.8417 13.2584 33.408 13.2584H34.4746C35.0409 13.2584 35.5 12.7993 35.5 12.233C35.5 11.6667 35.0409 11.2076 34.4746 11.2076ZM32.5474 20.7395C32.1332 20.3534 31.4844 20.376 31.0981 20.7901C30.7119 21.2043 30.7345 21.8531 31.1487 22.2394L31.9288 22.9668C32.3438 23.3537 32.9926 23.3294 33.3781 22.9161C33.7642 22.5019 33.7416 21.8531 33.3274 21.4669L32.5474 20.7395ZM32.5474 3.86995L33.3274 3.14254C33.7416 2.75631 33.7642 2.10744 33.378 1.69332C32.9918 1.2792 32.3429 1.25644 31.9288 1.64274L31.1487 2.37015C30.7345 2.75638 30.7119 3.40524 31.0981 3.81937C31.4844 4.23356 32.1333 4.25611 32.5474 3.86995ZM12.1895 27.7881C12.1895 29.0635 12.9705 30.1597 14.0792 30.625H21.9208C23.0295 30.1597 23.8105 29.0635 23.8105 27.7881V26.3184H12.1895V27.7881ZM14.2402 33.9746C14.2402 34.5406 14.6996 35 15.2656 35H20.7344C21.3004 35 21.7598 34.5406 21.7598 33.9746V32.6758H14.2402V33.9746ZM29.8636 12.3047C32.7813 9.32634 31.0955 4.30301 27.0126 3.65271C25.9876 0.24492 21.8692 -1.1116 19.0254 1.02791V24.6436H22.1016C24.4161 24.6436 26.391 23.1233 27.0228 20.955C31.0834 20.3001 32.7867 15.2886 29.8636 12.3047ZM21.0762 6.22069C21.0762 5.65441 21.5353 5.1953 22.1016 5.1953C22.6679 5.1953 23.127 5.65441 23.127 6.22069C23.127 7.27077 23.525 7.46313 24.318 7.84629C25.0687 8.209 26.2031 8.75711 26.2031 10.3223C26.2031 10.8886 25.744 11.3477 25.1777 11.3477C24.6114 11.3477 24.1523 10.8886 24.1523 10.3223C24.1523 10.0973 24.1523 10.0438 23.4258 9.69281C22.5471 9.26823 21.0762 8.55757 21.0762 6.22069ZM27.1582 15.8946C25.9777 17.5305 24.1541 18.2093 23.6348 18.2093C23.1886 18.2093 22.7782 17.9159 22.6494 17.4656C22.4937 16.9211 22.8089 16.3535 23.3534 16.1978C24.201 15.9554 24.9672 15.4262 25.4952 14.6945C25.8266 14.2353 26.4675 14.1317 26.9267 14.4631C27.3859 14.7945 27.4896 15.4354 27.1582 15.8946ZM16.9746 24.6436V1.02791C14.1309 -1.11153 10.0125 0.244783 8.9875 3.65271C4.90228 4.30342 3.22002 9.32763 6.13644 12.3047C3.2123 15.2896 4.91854 20.3003 8.97731 20.955C9.61107 23.1304 11.5901 24.6436 13.8985 24.6436H16.9746ZM11.682 7.84629C12.475 7.46313 12.873 7.27084 12.873 6.22069C12.873 5.65441 13.3321 5.1953 13.8984 5.1953C14.4647 5.1953 14.9238 5.65441 14.9238 6.22069C14.9238 8.55757 13.4529 9.26823 12.5742 9.69281C11.8477 10.0438 11.8477 10.0973 11.8477 10.3223C11.8477 10.8886 11.3886 11.3477 10.8223 11.3477C10.256 11.3477 9.79688 10.8886 9.79688 10.3223C9.79688 8.75711 10.9313 8.209 11.682 7.84629ZM13.3506 17.4656C13.2219 17.9158 12.8114 18.2093 12.3652 18.2093C11.8302 18.2093 10.1258 17.5358 8.99064 16.0921C8.64058 15.6469 8.71775 15.0023 9.16291 14.6523C9.6082 14.3022 10.2528 14.3794 10.6028 14.8245C11.1135 15.4741 11.833 15.9651 12.6466 16.1978C13.1912 16.3535 13.5063 16.9211 13.3506 17.4656Z" fill="white"/>
</g>
</g>
</g>
</g>
<defs>
<clipPath id="clip0_74_32">
<rect width="35" height="35" fill="white" transform="translate(0.5)"/>
</clipPath>
</defs>
</svg>
