<svg xmlns="http://www.w3.org/2000/svg" width="512" height="512" viewBox="0 0 512 512" fill="none"><path d="M111 426H401V86H111V426ZM346 366H166C164.674 366 163.402 365.473 162.464 364.536C161.527 363.598 161 362.326 161 361C161 359.674 161.527 358.402 162.464 357.464C163.402 356.527 164.674 356 166 356H346C347.326 356 348.598 356.527 349.536 357.464C350.473 358.402 351 359.674 351 361C351 362.326 350.473 363.598 349.536 364.536C348.598 365.473 347.326 366 346 366ZM351 321C351 322.326 350.473 323.598 349.536 324.536C348.598 325.473 347.326 326 346 326H166C164.674 326 163.402 325.473 162.464 324.536C161.527 323.598 161 322.326 161 321C161 319.674 161.527 318.402 162.464 317.464C163.402 316.527 164.674 316 166 316H346C347.326 316 348.598 316.527 349.536 317.464C350.473 318.402 351 319.674 351 321ZM166 276H286C287.326 276 288.598 276.527 289.536 277.464C290.473 278.402 291 279.674 291 281C291 282.326 290.473 283.598 289.536 284.536C288.598 285.473 287.326 286 286 286H166C164.674 286 163.402 285.473 162.464 284.536C161.527 283.598 161 282.326 161 281C161 279.674 161.527 278.402 162.464 277.464C163.402 276.527 164.674 276 166 276ZM161 241C161 239.674 161.527 238.402 162.464 237.464C163.402 236.527 164.674 236 166 236H286C287.326 236 288.598 236.527 289.536 237.464C290.473 238.402 291 239.674 291 241C291 242.326 290.473 243.598 289.536 244.536C288.598 245.473 287.326 246 286 246H166C164.674 246 163.402 245.473 162.464 244.536C161.527 243.598 161 242.326 161 241ZM262.464 134.535C261.99 134.073 261.613 133.521 261.354 132.912C261.094 132.303 260.959 131.648 260.955 130.987C260.951 130.325 261.078 129.668 261.329 129.056C261.581 128.444 261.951 127.887 262.419 127.419C262.887 126.951 263.444 126.581 264.056 126.33C264.669 126.078 265.325 125.951 265.987 125.955C266.649 125.96 267.303 126.095 267.912 126.354C268.521 126.613 269.073 126.991 269.535 127.465L289.535 147.465C289.999 147.929 290.368 148.48 290.619 149.087C290.87 149.693 291 150.343 291 151C291 151.657 290.87 152.307 290.619 152.913C290.368 153.52 289.999 154.071 289.535 154.535L269.535 174.535C268.559 175.512 267.28 176 266 176C264.72 176 263.441 175.512 262.464 174.535C262 174.071 261.631 173.52 261.38 172.913C261.129 172.307 260.999 171.657 260.999 171C260.999 170.343 261.129 169.693 261.38 169.087C261.631 168.48 262 167.929 262.464 167.465L278.929 151L262.464 134.535ZM201.528 178.764L231.528 118.764C231.821 118.176 232.227 117.652 232.723 117.222C233.219 116.791 233.795 116.463 234.419 116.255C235.042 116.048 235.699 115.965 236.354 116.012C237.01 116.059 237.649 116.235 238.236 116.529C239.422 117.122 240.324 118.162 240.743 119.42C241.163 120.678 241.065 122.051 240.472 123.237L210.472 183.237C210.178 183.824 209.772 184.348 209.276 184.778C208.78 185.208 208.204 185.537 207.581 185.744C206.958 185.952 206.3 186.035 205.645 185.988C204.99 185.941 204.351 185.766 203.764 185.473C203.176 185.179 202.653 184.772 202.222 184.276C201.792 183.78 201.464 183.204 201.256 182.581C201.049 181.958 200.966 181.301 201.013 180.646C201.059 179.991 201.234 179.351 201.528 178.764ZM152.464 147.465L172.464 127.465C172.926 126.991 173.478 126.613 174.087 126.354C174.696 126.095 175.35 125.96 176.012 125.955C176.674 125.951 177.33 126.078 177.943 126.33C178.555 126.581 179.111 126.951 179.58 127.419C180.048 127.887 180.418 128.444 180.67 129.056C180.921 129.668 181.048 130.325 181.044 130.987C181.04 131.648 180.905 132.303 180.645 132.912C180.386 133.521 180.009 134.073 179.535 134.535L163.071 151L179.535 167.465C179.999 167.929 180.368 168.48 180.619 169.087C180.87 169.693 181 170.343 181 171C181 171.657 180.87 172.307 180.619 172.913C180.368 173.52 179.999 174.071 179.535 174.535C178.559 175.512 177.28 176 176 176C174.72 176 173.441 175.512 172.464 174.535L152.464 154.535C151.527 153.597 151 152.326 151 151C151 149.674 151.527 148.403 152.464 147.465ZM359.056 16H152.944C129.816 16 111 34.815 111 57.943V76H401V57.943C401 34.815 382.184 16 359.056 16ZM111 454.057C111 477.185 129.816 496 152.944 496H359.056C382.184 496 401 477.185 401 454.057V436H111V454.057Z" fill="white"></path><path d="M481 91C489.284 91 496 84.2843 496 76C496 67.7157 489.284 61 481 61C472.716 61 466 67.7157 466 76C466 84.2843 472.716 91 481 91Z" fill="white"></path><path d="M51 411C59.2843 411 66 404.284 66 396C66 387.716 59.2843 381 51 381C42.7157 381 36 387.716 36 396C36 404.284 42.7157 411 51 411Z" fill="white"></path><path d="M26 211C31.5228 211 36 206.523 36 201C36 195.477 31.5228 191 26 191C20.4772 191 16 195.477 16 201C16 206.523 20.4772 211 26 211Z" fill="white"></path><path d="M456 221C461.523 221 466 216.523 466 211C466 205.477 461.523 201 456 201C450.477 201 446 205.477 446 211C446 216.523 450.477 221 456 221Z" fill="white"></path><path d="M76 101C81.5228 101 86 96.5228 86 91C86 85.4772 81.5228 81 76 81C70.4772 81 66 85.4772 66 91C66 96.5228 70.4772 101 76 101Z" fill="white"></path><path d="M466 431C471.523 431 476 426.523 476 421C476 415.477 471.523 411 466 411C460.477 411 456 415.477 456 421C456 426.523 460.477 431 466 431Z" fill="white"></path></svg>