<svg xmlns="http://www.w3.org/2000/svg" width="512" height="512" viewBox="0 0 512 512" fill="none"><g clip-path="url(#clip0_289_57)"><path fill-rule="evenodd" clip-rule="evenodd" d="M462.501 54.857H415.214L378.642 91.429H425.929L462.501 54.857ZM389.358 36.571L352.786 0H305.499L342.071 36.571H389.358ZM316.215 36.571L279.643 0H232.357L268.928 36.571H316.215ZM243.072 36.571L206.501 0H159.214L195.785 36.571H243.072ZM169.929 36.571L133.358 0H73.143L100.571 36.571H169.929ZM389.358 54.857H342.071L305.499 91.429H352.786L389.358 54.857ZM138.13 86.656L169.929 54.857H114.286L138.13 86.656ZM462.501 36.571L425.929 0H378.642L415.214 36.571H462.501ZM316.215 54.857H268.928L232.357 91.429H279.643L316.215 54.857Z" fill="white"></path><path d="M50.286 5.47037e-08H9.143C7.94229 -0.000131293 6.75331 0.23627 5.64397 0.695702C4.53463 1.15513 3.52666 1.8286 2.67763 2.67763C1.8286 3.52666 1.15513 4.53463 0.695702 5.64397C0.23627 6.75331 -0.000131293 7.94229 5.47037e-08 9.143V82.286C5.47037e-08 84.7109 0.963278 87.0364 2.67792 88.7511C4.39257 90.4657 6.71813 91.429 9.143 91.429H118.857L50.286 5.47037e-08ZM27.429 73.143C25.0041 73.143 22.6786 72.1797 20.9639 70.4651C19.2493 68.7504 18.286 66.4249 18.286 64C18.286 61.5751 19.2493 59.2496 20.9639 57.5349C22.6786 55.8203 25.0041 54.857 27.429 54.857C29.8539 54.857 32.1794 55.8203 33.8941 57.5349C35.6087 59.2496 36.572 61.5751 36.572 64C36.572 66.4249 35.6087 68.7504 33.8941 70.4651C32.1794 72.1797 29.8539 73.143 27.429 73.143ZM27.429 36.571C25.0041 36.571 22.6786 35.6077 20.9639 33.8931C19.2493 32.1784 18.286 29.8529 18.286 27.428C18.286 25.0031 19.2493 22.6776 20.9639 20.9629C22.6786 19.2483 25.0041 18.285 27.429 18.285C29.8539 18.285 32.1794 19.2483 33.8941 20.9629C35.6087 22.6776 36.572 25.0031 36.572 27.428C36.572 29.8529 35.6087 32.1784 33.8941 33.8931C32.1794 35.6077 29.8539 36.571 27.429 36.571ZM64 73.143C61.5751 73.143 59.2496 72.1797 57.5349 70.4651C55.8203 68.7504 54.857 66.4249 54.857 64C54.857 61.5751 55.8203 59.2496 57.5349 57.5349C59.2496 55.8203 61.5751 54.857 64 54.857C66.4249 54.857 68.7504 55.8203 70.4651 57.5349C72.1797 59.2496 73.143 61.5751 73.143 64C73.143 66.4249 72.1797 68.7504 70.4651 70.4651C68.7504 72.1797 66.4249 73.143 64 73.143Z" fill="white"></path><path fill-rule="evenodd" clip-rule="evenodd" d="M243.072 54.8569H195.785L159.214 91.4289H206.501L243.072 54.8569Z" fill="white"></path><path d="M347.429 292.571H91.429C81.33 292.571 73.143 300.758 73.143 310.857V493.714C73.143 503.813 81.33 512 91.429 512H347.429C357.528 512 365.715 503.813 365.715 493.714V310.857C365.714 300.758 357.527 292.571 347.429 292.571ZM192 356.571H146.286V384H182.857C185.282 384 187.607 384.963 189.322 386.678C191.037 388.393 192 390.718 192 393.143C192 395.568 191.037 397.893 189.322 399.608C187.607 401.323 185.282 402.286 182.857 402.286H146.286V457.143C146.286 459.568 145.323 461.893 143.608 463.608C141.893 465.323 139.568 466.286 137.143 466.286C134.718 466.286 132.393 465.323 130.678 463.608C128.963 461.893 128 459.568 128 457.143V356.571C128 346.472 136.187 338.285 146.286 338.285H192C194.425 338.285 196.75 339.248 198.465 340.963C200.18 342.678 201.143 345.003 201.143 347.428C201.143 349.853 200.18 352.178 198.465 353.893C196.75 355.608 194.425 356.571 192 356.571ZM309.321 452.069C312.123 456.27 310.99 461.948 306.788 464.75C302.587 467.552 296.909 466.419 294.107 462.217L265.142 418.743L236.177 462.19C234.828 464.199 232.737 465.592 230.363 466.062C227.989 466.532 225.525 466.042 223.512 464.699C221.498 463.356 220.099 461.27 219.622 458.897C219.144 456.525 219.626 454.06 220.963 452.042L254.17 402.287L220.981 352.504C218.179 348.303 219.312 342.625 223.514 339.823C227.716 337.021 233.393 338.154 236.195 342.356L265.141 385.83L294.106 342.383C295.455 340.374 297.546 338.981 299.92 338.511C302.294 338.041 304.758 338.531 306.771 339.874C308.785 341.217 310.183 343.303 310.661 345.676C311.139 348.048 310.657 350.513 309.32 352.531L276.113 402.286L309.321 452.069Z" fill="white"></path><path fill-rule="evenodd" clip-rule="evenodd" d="M18.286 438.857C18.286 448.956 26.473 457.143 36.572 457.143H54.858V310.857C54.858 290.659 71.232 274.286 91.429 274.286H94.684C68.549 253.267 57.8 218.481 67.521 186.382C77.242 154.283 105.485 131.306 138.891 128.319C172.296 125.332 204.168 142.935 219.429 172.8C234.681 142.914 266.561 125.293 299.981 128.275C333.401 131.257 361.657 154.245 371.377 186.359C381.097 218.473 370.331 253.272 344.174 274.286H347.429C367.627 274.286 384 290.66 384 310.857V320L413.257 298.057C417.332 295.001 422.178 293.141 427.251 292.683C432.324 292.226 437.424 293.191 441.98 295.468C446.536 297.746 450.368 301.248 453.046 305.581C455.724 309.914 457.143 314.906 457.143 320V457.143H475.429C485.528 457.143 493.715 448.956 493.715 438.857V109.714H18.286V438.857Z" fill="white"></path><path fill-rule="evenodd" clip-rule="evenodd" d="M197.888 274.286H240.969C232.019 267.046 224.682 258.015 219.428 247.772C214.175 258.015 206.838 267.046 197.888 274.286ZM433.819 311.854C432.306 311.068 430.601 310.728 428.903 310.876C427.204 311.023 425.583 311.651 424.228 312.686L384 342.857V461.714L424.229 491.885C425.587 492.904 427.203 493.525 428.894 493.678C430.585 493.831 432.286 493.509 433.804 492.75C435.323 491.99 436.601 490.823 437.493 489.378C438.385 487.933 438.858 486.268 438.857 484.57V320C438.875 318.304 438.411 316.639 437.519 315.196C436.627 313.754 435.344 312.595 433.819 311.854Z" fill="white"></path><path d="M146.286 274.286C181.632 274.286 210.286 245.632 210.286 210.286C210.286 174.94 181.632 146.286 146.286 146.286C110.94 146.286 82.286 174.94 82.286 210.286C82.286 245.632 110.94 274.286 146.286 274.286Z" fill="white"></path><path d="M292.571 274.286C327.917 274.286 356.571 245.632 356.571 210.286C356.571 174.94 327.917 146.286 292.571 146.286C257.225 146.286 228.571 174.94 228.571 210.286C228.571 245.632 257.225 274.286 292.571 274.286Z" fill="white"></path><path fill-rule="evenodd" clip-rule="evenodd" d="M502.857 54.857H488.356L451.785 91.428H502.857C505.282 91.428 507.607 90.4647 509.322 88.7501C511.037 87.0354 512 84.7099 512 82.285V64C512 61.5751 511.037 59.2496 509.322 57.5349C507.607 55.8203 505.282 54.857 502.857 54.857ZM502.857 5.47037e-08H451.785L488.356 36.571H502.857C505.282 36.571 507.607 35.6077 509.322 33.8931C511.037 32.1784 512 29.8529 512 27.428V9.143C512 7.94229 511.764 6.75331 511.304 5.64397C510.845 4.53463 510.171 3.52666 509.322 2.67763C508.473 1.8286 507.465 1.15513 506.356 0.695702C505.247 0.23627 504.058 -0.000131293 502.857 5.47037e-08Z" fill="white"></path></g><defs><clipPath id="clip0_289_57"><rect width="512" height="512" fill="white"></rect></clipPath></defs></svg>