<svg width="84" height="62" viewBox="0 0 84 62" fill="none" xmlns="http://www.w3.org/2000/svg">
<g id="Group 3">
<g id="Group 1">
<path id="CRYXXON" fill-rule="evenodd" clip-rule="evenodd" d="M26.839 2.24604C20.4425 2.91465 14.4247 5.82575 9.95823 10.412C7.31497 13.126 5.61264 15.6467 4.20024 18.9385C2.47048 22.9697 1.84379 26.9228 2.03224 32.612C2.20709 37.8892 3.0974 41.3936 5.30532 45.4949C8.60716 51.6288 14.1901 56.3806 20.7059 58.603C24.7952 59.9976 24.1634 59.9565 42.757 60.0417L59.7903 60.1197L59.3721 59.4736C59.1422 59.1181 56.8968 55.9524 54.3822 52.4389L49.8103 46.0504L39.4397 45.9677C29.7343 45.8902 28.9762 45.8556 27.618 45.4267C21.6676 43.5469 17.7754 39.2637 16.7885 33.5088C15.5095 26.0508 20.1802 18.8295 27.6187 16.764C29.1479 16.3394 29.8868 16.3019 36.7033 16.3019H44.1232V9.15093V2L36.3732 2.02972C32.1106 2.04603 27.8203 2.14347 26.839 2.24604ZM50.5906 9.09507V16.1901L57.4182 16.1278C66.2588 16.0473 67.0907 16.2395 69.1996 18.8503C69.8202 19.6186 69.8818 19.8407 69.8785 21.2948C69.8753 22.6459 69.7819 23.0378 69.2774 23.82C68.9491 24.329 68.3664 24.9695 67.9828 25.2432C66.5505 26.2651 65.7126 26.3579 57.9151 26.3579H50.5908V32.2552V38.1524L51.5458 39.462C52.071 40.1822 54.248 43.2855 56.3834 46.3581C58.5188 49.4308 61.5305 53.7549 63.0763 55.9672L65.8864 59.9896L73.1854 60.0486L80.4845 60.1074L79.72 58.9313C77.8138 55.9976 66.8715 38.0966 66.8715 37.9115C66.8715 37.8456 67.3614 37.6865 67.9602 37.5578C74.0115 36.2574 79.2469 31.473 81.1585 25.4966C82.7952 20.3792 82.0133 14.6388 79.0839 10.2676C77.7088 8.2155 74.82 5.59245 72.7421 4.50931C68.6674 2.38526 66.222 2 56.8118 2H50.5908L50.5906 9.09507ZM32.3822 26.6812C31.9966 26.8493 31.2787 27.3512 30.7869 27.7963C27.5353 30.7398 28.6243 36.1848 32.7569 37.6456C33.4864 37.9035 34.866 37.9781 38.9103 37.9781H44.1232V32.168V26.3579L38.6034 26.3666C34.4394 26.3733 32.9114 26.4504 32.3822 26.6812Z" fill="white"/>
<g id="CRYXXON_2" filter="url(#filter0_f_44_2102)">
<path fill-rule="evenodd" clip-rule="evenodd" d="M26.839 2.24604C20.4425 2.91465 14.4247 5.82575 9.95823 10.412C7.31497 13.126 5.61264 15.6467 4.20024 18.9385C2.47048 22.9697 1.84379 26.9228 2.03224 32.612C2.20709 37.8892 3.0974 41.3936 5.30532 45.4949C8.60716 51.6288 14.1901 56.3806 20.7059 58.603C24.7952 59.9976 24.1634 59.9565 42.757 60.0417L59.7903 60.1197L59.3721 59.4736C59.1422 59.1181 56.8968 55.9524 54.3822 52.4389L49.8103 46.0504L39.4397 45.9677C29.7343 45.8902 28.9762 45.8556 27.618 45.4267C21.6676 43.5469 17.7754 39.2637 16.7885 33.5088C15.5095 26.0508 20.1802 18.8295 27.6187 16.764C29.1479 16.3394 29.8868 16.3019 36.7033 16.3019H44.1232V9.15093V2L36.3732 2.02972C32.1106 2.04603 27.8203 2.14347 26.839 2.24604ZM50.5906 9.09507V16.1901L57.4182 16.1278C66.2588 16.0473 67.0907 16.2395 69.1996 18.8503C69.8202 19.6186 69.8818 19.8407 69.8785 21.2948C69.8753 22.6459 69.7819 23.0378 69.2774 23.82C68.9491 24.329 68.3664 24.9695 67.9828 25.2432C66.5505 26.2651 65.7126 26.3579 57.9151 26.3579H50.5908V32.2552V38.1524L51.5458 39.462C52.071 40.1822 54.248 43.2855 56.3834 46.3581C58.5188 49.4308 61.5305 53.7549 63.0763 55.9672L65.8864 59.9896L73.1854 60.0486L80.4845 60.1074L79.72 58.9313C77.8138 55.9976 66.8715 38.0966 66.8715 37.9115C66.8715 37.8456 67.3614 37.6865 67.9602 37.5578C74.0115 36.2574 79.2469 31.473 81.1585 25.4966C82.7952 20.3792 82.0133 14.6388 79.0839 10.2676C77.7088 8.2155 74.82 5.59245 72.7421 4.50931C68.6674 2.38526 66.222 2 56.8118 2H50.5908L50.5906 9.09507ZM32.3822 26.6812C31.9966 26.8493 31.2787 27.3512 30.7869 27.7963C27.5353 30.7398 28.6243 36.1848 32.7569 37.6456C33.4864 37.9035 34.866 37.9781 38.9103 37.9781H44.1232V32.168V26.3579L38.6034 26.3666C34.4394 26.3733 32.9114 26.4504 32.3822 26.6812Z" fill="white"/>
</g>
</g>
</g>
<defs>
<filter id="filter0_f_44_2102" x="0.4" y="0.4" width="83.2" height="61.3197" filterUnits="userSpaceOnUse" color-interpolation-filters="sRGB">
<feFlood flood-opacity="0" result="BackgroundImageFix"/>
<feBlend mode="normal" in="SourceGraphic" in2="BackgroundImageFix" result="shape"/>
<feGaussianBlur stdDeviation="0.8" result="effect1_foregroundBlur_44_2102"/>
</filter>
</defs>
</svg>
