<svg width="73" height="30" viewBox="0 0 73 30" fill="none" xmlns="http://www.w3.org/2000/svg">
<g id="Group 405">
<rect id="Rectangle 41" width="73" height="30" fill="white"/>
<g id="Group 3">
<g id="Group 1">
<path id="CRYXXON" fill-rule="evenodd" clip-rule="evenodd" d="M31.0041 4.08919C28.6854 4.33156 26.5039 5.38683 24.8849 7.04933C23.9267 8.03316 23.3096 8.94691 22.7976 10.1402C22.1705 11.6015 21.9434 13.0345 22.0117 15.0969C22.0751 17.0098 22.3978 18.2802 23.1982 19.7669C24.3951 21.9904 26.4189 23.713 28.7809 24.5186C30.2633 25.0241 30.0342 25.0092 36.7744 25.0401L42.949 25.0684L42.7974 24.8342C42.714 24.7053 41.9001 23.5578 40.9886 22.2841L39.3312 19.9683L35.5719 19.9383C32.0537 19.9102 31.7789 19.8976 31.2865 19.7422C29.1295 19.0608 27.7186 17.5081 27.3608 15.4219C26.8972 12.7184 28.5903 10.1007 31.2868 9.35195C31.8411 9.19803 32.109 9.18443 34.5799 9.18443H37.2697V6.59221V4L34.4603 4.01077C32.9151 4.01669 31.3599 4.05201 31.0041 4.08919ZM39.6141 6.57196V9.14392L42.0891 9.12132C45.2938 9.09216 45.5954 9.16183 46.3598 10.1082C46.5848 10.3867 46.6072 10.4672 46.6059 10.9944C46.6048 11.4841 46.5709 11.6262 46.3881 11.9097C46.2691 12.0943 46.0578 12.3264 45.9188 12.4257C45.3996 12.7961 45.0958 12.8297 42.2692 12.8297H39.6142V14.9675V17.1053L39.9604 17.58C40.1508 17.841 40.9399 18.966 41.714 20.0798C42.4881 21.1937 43.5798 22.7611 44.1402 23.5631L45.1588 25.0212L47.8047 25.0426L50.4506 25.0639L50.1735 24.6376C49.4825 23.5741 45.5159 17.085 45.5159 17.0179C45.5159 16.994 45.6935 16.9364 45.9106 16.8897C48.1042 16.4183 50.002 14.684 50.6949 12.5175C51.2883 10.6625 51.0048 8.58157 49.9429 6.997C49.4444 6.25312 48.3972 5.30226 47.644 4.90962C46.1669 4.13966 45.2805 4 41.8693 4H39.6142L39.6141 6.57196ZM33.0135 12.9469C32.8738 13.0079 32.6135 13.1898 32.4353 13.3512C31.2565 14.4182 31.6513 16.392 33.1494 16.9215C33.4138 17.015 33.9139 17.0421 35.38 17.0421H37.2697V14.9359V12.8297L35.2687 12.8329C33.7593 12.8353 33.2054 12.8633 33.0135 12.9469Z" fill="black"/>
<path id="CRYXXON_2" fill-rule="evenodd" clip-rule="evenodd" d="M31.0041 4.08919C28.6854 4.33156 26.5039 5.38683 24.8849 7.04933C23.9267 8.03316 23.3096 8.94691 22.7976 10.1402C22.1705 11.6015 21.9434 13.0345 22.0117 15.0969C22.0751 17.0098 22.3978 18.2802 23.1982 19.7669C24.3951 21.9904 26.4189 23.713 28.7809 24.5186C30.2633 25.0241 30.0342 25.0092 36.7744 25.0401L42.949 25.0684L42.7974 24.8342C42.714 24.7053 41.9001 23.5578 40.9886 22.2841L39.3312 19.9683L35.5719 19.9383C32.0537 19.9102 31.7789 19.8976 31.2865 19.7422C29.1295 19.0608 27.7186 17.5081 27.3608 15.4219C26.8972 12.7184 28.5903 10.1007 31.2868 9.35195C31.8411 9.19803 32.109 9.18443 34.5799 9.18443H37.2697V6.59221V4L34.4603 4.01077C32.9151 4.01669 31.3599 4.05201 31.0041 4.08919ZM39.6141 6.57196V9.14392L42.0891 9.12132C45.2938 9.09216 45.5954 9.16183 46.3598 10.1082C46.5848 10.3867 46.6072 10.4672 46.6059 10.9944C46.6048 11.4841 46.5709 11.6262 46.3881 11.9097C46.2691 12.0943 46.0578 12.3264 45.9188 12.4257C45.3996 12.7961 45.0958 12.8297 42.2692 12.8297H39.6142V14.9675V17.1053L39.9604 17.58C40.1508 17.841 40.9399 18.966 41.714 20.0798C42.4881 21.1937 43.5798 22.7611 44.1402 23.5631L45.1588 25.0212L47.8047 25.0426L50.4506 25.0639L50.1735 24.6376C49.4825 23.5741 45.5159 17.085 45.5159 17.0179C45.5159 16.994 45.6935 16.9364 45.9106 16.8897C48.1042 16.4183 50.002 14.684 50.6949 12.5175C51.2883 10.6625 51.0048 8.58157 49.9429 6.997C49.4444 6.25312 48.3972 5.30226 47.644 4.90962C46.1669 4.13966 45.2805 4 41.8693 4H39.6142L39.6141 6.57196ZM33.0135 12.9469C32.8738 13.0079 32.6135 13.1898 32.4353 13.3512C31.2565 14.4182 31.6513 16.392 33.1494 16.9215C33.4138 17.015 33.9139 17.0421 35.38 17.0421H37.2697V14.9359V12.8297L35.2687 12.8329C33.7593 12.8353 33.2054 12.8633 33.0135 12.9469Z" fill="black"/>
</g>
</g>
</g>
</svg>
