<svg width="36" height="35" viewBox="0 0 36 35" fill="none" xmlns="http://www.w3.org/2000/svg">
<g id="SVG" clip-path="url(#clip0_74_40)">
<g id="Clip path group">
<mask id="mask0_74_40" style="mask-type:luminance" maskUnits="userSpaceOnUse" x="0" y="0" width="36" height="35">
<g id="clip0_290_103">
<path id="Vector" d="M35.5 0H0.5V35H35.5V0Z" fill="white"/>
</g>
</mask>
<g mask="url(#mask0_74_40)">
<g id="Group">
<path id="Vector_2" d="M5.85403 4.13049H5.85109C5.68807 4.13014 5.52659 4.16209 5.37598 4.22449C5.22537 4.28689 5.08861 4.3785 4.97361 4.49405C4.85636 4.61041 4.76339 4.74892 4.70011 4.90152C4.63683 5.05411 4.60449 5.21776 4.60499 5.38296V24.1634C4.60499 24.8521 5.16746 25.4137 5.85898 25.4155C8.77422 25.4225 13.6585 26.0301 17.0279 29.5561V9.90184C17.0279 9.66839 16.9683 9.4491 16.8557 9.2676C14.0903 4.81399 8.77587 4.13733 5.85403 4.13049ZM31.3953 24.1634V5.38283C31.3953 5.04674 31.2643 4.73103 31.0266 4.49393C30.9117 4.37842 30.7749 4.28682 30.6243 4.22442C30.4737 4.16202 30.3123 4.13006 30.1493 4.13037H30.1462C27.2245 4.13733 21.9102 4.81399 19.1445 9.2676C19.032 9.4491 18.9725 9.66839 18.9725 9.90184V29.556C22.3419 26.0299 27.2261 25.4224 30.1414 25.4154C30.8328 25.4136 31.3953 24.852 31.3953 24.1634Z" fill="white"/>
<path id="Vector_3" d="M34.2478 8.46167H33.3396V24.1635C33.3396 25.9219 31.907 27.3557 30.146 27.36C27.6732 27.366 23.596 27.8495 20.7084 30.5824C25.7025 29.3597 30.9671 30.1546 33.9674 30.8383C34.1512 30.8807 34.3422 30.8809 34.5262 30.839C34.71 30.7971 34.882 30.7141 35.0293 30.5962C35.1765 30.4793 35.2953 30.3305 35.3769 30.1611C35.4584 29.9917 35.5005 29.806 35.5 29.618V9.71388C35.5001 9.02338 34.9382 8.46167 34.2478 8.46167ZM2.66034 24.1635V8.46167H1.75223C1.06189 8.46167 0.5 9.02338 0.5 9.71388V29.6176C0.5 30.0006 0.671583 30.3572 0.970675 30.5959C1.11791 30.7138 1.28993 30.7968 1.47385 30.8388C1.65777 30.8807 1.84879 30.8804 2.03258 30.8379C5.03293 30.1541 10.2977 29.3593 15.2915 30.5821C12.404 27.8492 8.32681 27.3658 5.85408 27.36C4.09311 27.3557 2.66034 25.9219 2.66034 24.1635Z" fill="white"/>
</g>
</g>
</g>
</g>
<defs>
<clipPath id="clip0_74_40">
<rect width="35" height="35" fill="white" transform="translate(0.5)"/>
</clipPath>
</defs>
</svg>
