<svg width="59" height="9" viewBox="0 0 59 9" fill="none" xmlns="http://www.w3.org/2000/svg">
<path d="M3.453 8.154C2.88833 8.154 2.375 8.05867 1.913 7.868C1.45833 7.67 1.08067 7.38767 0.78 7.021L1.968 5.613C2.17333 5.877 2.386 6.07867 2.606 6.218C2.826 6.35 3.057 6.416 3.299 6.416C3.94433 6.416 4.267 6.042 4.267 5.294V1.983H1.605V0.299999H6.423V5.162C6.423 6.16667 6.17 6.91833 5.664 7.417C5.158 7.90833 4.421 8.154 3.453 8.154ZM6.80791 8L10.2069 0.299999H12.3519L15.7619 8H13.4959L10.8339 1.367H11.6919L9.02991 8H6.80791ZM8.66691 6.504L9.22791 4.898H12.9899L13.5509 6.504H8.66691ZM16.3794 8V0.299999H19.8994C20.6034 0.299999 21.2084 0.413666 21.7144 0.641C22.2277 0.868333 22.6237 1.19833 22.9024 1.631C23.181 2.05633 23.3204 2.56233 23.3204 3.149C23.3204 3.72833 23.181 4.23067 22.9024 4.656C22.6237 5.074 22.2277 5.39667 21.7144 5.624C21.2084 5.844 20.6034 5.954 19.8994 5.954H17.5894L18.5574 5.041V8H16.3794ZM21.1424 8L19.2284 5.195H21.5494L23.4744 8H21.1424ZM18.5574 5.272L17.5894 4.271H19.7674C20.222 4.271 20.5594 4.172 20.7794 3.974C21.0067 3.776 21.1204 3.501 21.1204 3.149C21.1204 2.78967 21.0067 2.511 20.7794 2.313C20.5594 2.115 20.222 2.016 19.7674 2.016H17.5894L18.5574 1.015V5.272ZM23.598 8L26.997 0.299999H29.142L32.552 8H30.286L27.624 1.367H28.482L25.82 8H23.598ZM25.457 6.504L26.018 4.898H29.78L30.341 6.504H25.457ZM34.4217 8V2.027H32.0567V0.299999H38.9537V2.027H36.5997V8H34.4217Z" fill="black"/>
<path d="M40.1701 8.099C39.8181 8.099 39.5211 7.98167 39.2791 7.747C39.0371 7.51233 38.9161 7.21533 38.9161 6.856C38.9161 6.482 39.0371 6.185 39.2791 5.965C39.5211 5.73767 39.8181 5.624 40.1701 5.624C40.5221 5.624 40.8191 5.73767 41.0611 5.965C41.3031 6.185 41.4241 6.482 41.4241 6.856C41.4241 7.21533 41.3031 7.51233 41.0611 7.747C40.8191 7.98167 40.5221 8.099 40.1701 8.099ZM46.1285 8.154C45.5199 8.154 44.9552 8.05867 44.4345 7.868C43.9212 7.67 43.4739 7.39133 43.0925 7.032C42.7185 6.67267 42.4252 6.251 42.2125 5.767C41.9999 5.27567 41.8935 4.73667 41.8935 4.15C41.8935 3.56333 41.9999 3.028 42.2125 2.544C42.4252 2.05267 42.7185 1.62733 43.0925 1.268C43.4739 0.908666 43.9212 0.633666 44.4345 0.443C44.9552 0.245 45.5199 0.145999 46.1285 0.145999C46.8399 0.145999 47.4742 0.270666 48.0315 0.52C48.5962 0.769333 49.0655 1.12867 49.4395 1.598L48.0535 2.852C47.8042 2.55867 47.5292 2.335 47.2285 2.181C46.9352 2.027 46.6052 1.95 46.2385 1.95C45.9232 1.95 45.6335 2.00133 45.3695 2.104C45.1055 2.20667 44.8782 2.357 44.6875 2.555C44.5042 2.74567 44.3575 2.97667 44.2475 3.248C44.1449 3.51933 44.0935 3.82 44.0935 4.15C44.0935 4.48 44.1449 4.78067 44.2475 5.052C44.3575 5.32333 44.5042 5.558 44.6875 5.756C44.8782 5.94667 45.1055 6.09333 45.3695 6.196C45.6335 6.29867 45.9232 6.35 46.2385 6.35C46.6052 6.35 46.9352 6.273 47.2285 6.119C47.5292 5.965 47.8042 5.74133 48.0535 5.448L49.4395 6.702C49.0655 7.164 48.5962 7.52333 48.0315 7.78C47.4742 8.02933 46.8399 8.154 46.1285 8.154ZM54.1325 8.154C53.5165 8.154 52.9482 8.055 52.4275 7.857C51.9068 7.659 51.4522 7.38033 51.0635 7.021C50.6822 6.65433 50.3852 6.229 50.1725 5.745C49.9598 5.261 49.8535 4.72933 49.8535 4.15C49.8535 3.57067 49.9598 3.039 50.1725 2.555C50.3852 2.071 50.6822 1.64933 51.0635 1.29C51.4522 0.923333 51.9068 0.641 52.4275 0.443C52.9482 0.245 53.5165 0.145999 54.1325 0.145999C54.7558 0.145999 55.3242 0.245 55.8375 0.443C56.3582 0.641 56.8092 0.923333 57.1905 1.29C57.5718 1.64933 57.8688 2.071 58.0815 2.555C58.3015 3.039 58.4115 3.57067 58.4115 4.15C58.4115 4.72933 58.3015 5.26467 58.0815 5.756C57.8688 6.24 57.5718 6.66167 57.1905 7.021C56.8092 7.38033 56.3582 7.659 55.8375 7.857C55.3242 8.055 54.7558 8.154 54.1325 8.154ZM54.1325 6.35C54.4258 6.35 54.6972 6.29867 54.9465 6.196C55.2032 6.09333 55.4232 5.94667 55.6065 5.756C55.7972 5.558 55.9438 5.32333 56.0465 5.052C56.1565 4.78067 56.2115 4.48 56.2115 4.15C56.2115 3.81267 56.1565 3.512 56.0465 3.248C55.9438 2.97667 55.7972 2.74567 55.6065 2.555C55.4232 2.357 55.2032 2.20667 54.9465 2.104C54.6972 2.00133 54.4258 1.95 54.1325 1.95C53.8392 1.95 53.5642 2.00133 53.3075 2.104C53.0582 2.20667 52.8382 2.357 52.6475 2.555C52.4642 2.74567 52.3175 2.97667 52.2075 3.248C52.1048 3.512 52.0535 3.81267 52.0535 4.15C52.0535 4.48 52.1048 4.78067 52.2075 5.052C52.3175 5.32333 52.4642 5.558 52.6475 5.756C52.8382 5.94667 53.0582 6.09333 53.3075 6.196C53.5642 6.29867 53.8392 6.35 54.1325 6.35Z" fill="#5A43E8"/>
</svg>
