<svg width="101" height="19" viewBox="0 0 101 19" fill="none" xmlns="http://www.w3.org/2000/svg">
<path d="M6.075 18.25C4.95833 18.25 3.925 18.0333 2.975 17.6C2.04167 17.1667 1.275 16.5417 0.675 15.725L2.525 13.5C3.00833 14.1667 3.53333 14.6667 4.1 15C4.68333 15.3333 5.31667 15.5 6 15.5C7.81667 15.5 8.725 14.425 8.725 12.275V3.225H2.5V0.499999H11.975V12.1C11.975 14.1667 11.4667 15.7083 10.45 16.725C9.45 17.7417 7.99167 18.25 6.075 18.25ZM24.4586 18V15.3L24.2836 14.725V10C24.2836 9.08333 24.0086 8.375 23.4586 7.875C22.9086 7.35833 22.0753 7.1 20.9586 7.1C20.2086 7.1 19.4669 7.21667 18.7336 7.45C18.0169 7.68333 17.4086 8.00833 16.9086 8.425L15.6836 6.15C16.4003 5.6 17.2503 5.19167 18.2336 4.925C19.2336 4.64167 20.2669 4.5 21.3336 4.5C23.2669 4.5 24.7586 4.96667 25.8086 5.9C26.8753 6.81667 27.4086 8.24167 27.4086 10.175V18H24.4586ZM20.2586 18.175C19.2586 18.175 18.3836 18.0083 17.6336 17.675C16.8836 17.325 16.3003 16.85 15.8836 16.25C15.4836 15.6333 15.2836 14.9417 15.2836 14.175C15.2836 13.425 15.4586 12.75 15.8086 12.15C16.1753 11.55 16.7669 11.075 17.5836 10.725C18.4003 10.375 19.4836 10.2 20.8336 10.2H24.7086V12.275H21.0586C19.9919 12.275 19.2753 12.45 18.9086 12.8C18.5419 13.1333 18.3586 13.55 18.3586 14.05C18.3586 14.6167 18.5836 15.0667 19.0336 15.4C19.4836 15.7333 20.1086 15.9 20.9086 15.9C21.6753 15.9 22.3586 15.725 22.9586 15.375C23.5753 15.025 24.0169 14.5083 24.2836 13.825L24.8086 15.7C24.5086 16.4833 23.9669 17.0917 23.1836 17.525C22.4169 17.9583 21.4419 18.175 20.2586 18.175ZM31.4191 18V4.65H34.3941V8.325L34.0441 7.25C34.4441 6.35 35.0691 5.66667 35.9191 5.2C36.7858 4.73333 37.8608 4.5 39.1441 4.5V7.475C39.0108 7.44167 38.8858 7.425 38.7691 7.425C38.6525 7.40833 38.5358 7.4 38.4191 7.4C37.2358 7.4 36.2941 7.75 35.5941 8.45C34.8941 9.13333 34.5441 10.1583 34.5441 11.525V18H31.4191ZM49.068 18V15.3L48.893 14.725V10C48.893 9.08333 48.618 8.375 48.068 7.875C47.518 7.35833 46.6846 7.1 45.568 7.1C44.818 7.1 44.0763 7.21667 43.343 7.45C42.6263 7.68333 42.018 8.00833 41.518 8.425L40.293 6.15C41.0096 5.6 41.8596 5.19167 42.843 4.925C43.843 4.64167 44.8763 4.5 45.943 4.5C47.8763 4.5 49.368 4.96667 50.418 5.9C51.4846 6.81667 52.018 8.24167 52.018 10.175V18H49.068ZM44.868 18.175C43.868 18.175 42.993 18.0083 42.243 17.675C41.493 17.325 40.9096 16.85 40.493 16.25C40.093 15.6333 39.893 14.9417 39.893 14.175C39.893 13.425 40.068 12.75 40.418 12.15C40.7846 11.55 41.3763 11.075 42.193 10.725C43.0096 10.375 44.093 10.2 45.443 10.2H49.318V12.275H45.668C44.6013 12.275 43.8846 12.45 43.518 12.8C43.1513 13.1333 42.968 13.55 42.968 14.05C42.968 14.6167 43.193 15.0667 43.643 15.4C44.093 15.7333 44.718 15.9 45.518 15.9C46.2846 15.9 46.968 15.725 47.568 15.375C48.1846 15.025 48.6263 14.5083 48.893 13.825L49.418 15.7C49.118 16.4833 48.5763 17.0917 47.793 17.525C47.0263 17.9583 46.0513 18.175 44.868 18.175ZM61.0535 18.175C59.5868 18.175 58.4535 17.8 57.6535 17.05C56.8535 16.2833 56.4535 15.1583 56.4535 13.675V1.7H59.5785V13.6C59.5785 14.2333 59.7368 14.725 60.0535 15.075C60.3868 15.425 60.8452 15.6 61.4285 15.6C62.1285 15.6 62.7118 15.4167 63.1785 15.05L64.0535 17.275C63.6868 17.575 63.2368 17.8 62.7035 17.95C62.1702 18.1 61.6202 18.175 61.0535 18.175ZM54.2535 7.25V4.75H63.1535V7.25H54.2535ZM67.8684 18.175C67.3017 18.175 66.8184 17.9833 66.4184 17.6C66.0184 17.2 65.8184 16.7 65.8184 16.1C65.8184 15.4667 66.0184 14.9667 66.4184 14.6C66.8184 14.2167 67.3017 14.025 67.8684 14.025C68.435 14.025 68.9184 14.2167 69.3184 14.6C69.7184 14.9667 69.9184 15.4667 69.9184 16.1C69.9184 16.7 69.7184 17.2 69.3184 17.6C68.9184 17.9833 68.435 18.175 67.8684 18.175ZM78.8771 18.175C77.4771 18.175 76.2271 17.8833 75.1271 17.3C74.0438 16.7 73.1938 15.8833 72.5771 14.85C71.9605 13.8167 71.6521 12.6417 71.6521 11.325C71.6521 9.99167 71.9605 8.81667 72.5771 7.8C73.1938 6.76667 74.0438 5.95833 75.1271 5.375C76.2271 4.79167 77.4771 4.5 78.8771 4.5C80.1771 4.5 81.3188 4.76667 82.3021 5.3C83.3021 5.81667 84.0605 6.58333 84.5771 7.6L82.1771 9C81.7771 8.36667 81.2855 7.9 80.7021 7.6C80.1355 7.3 79.5188 7.15 78.8521 7.15C78.0855 7.15 77.3938 7.31667 76.7771 7.65C76.1605 7.98333 75.6771 8.46667 75.3271 9.1C74.9771 9.71667 74.8021 10.4583 74.8021 11.325C74.8021 12.1917 74.9771 12.9417 75.3271 13.575C75.6771 14.1917 76.1605 14.6667 76.7771 15C77.3938 15.3333 78.0855 15.5 78.8521 15.5C79.5188 15.5 80.1355 15.35 80.7021 15.05C81.2855 14.75 81.7771 14.2833 82.1771 13.65L84.5771 15.05C84.0605 16.05 83.3021 16.825 82.3021 17.375C81.3188 17.9083 80.1771 18.175 78.8771 18.175ZM93.0832 18.175C91.7165 18.175 90.4999 17.8833 89.4332 17.3C88.3665 16.7 87.5249 15.8833 86.9082 14.85C86.2915 13.8167 85.9832 12.6417 85.9832 11.325C85.9832 9.99167 86.2915 8.81667 86.9082 7.8C87.5249 6.76667 88.3665 5.95833 89.4332 5.375C90.4999 4.79167 91.7165 4.5 93.0832 4.5C94.4665 4.5 95.6915 4.79167 96.7582 5.375C97.8415 5.95833 98.6832 6.75833 99.2832 7.775C99.8999 8.79167 100.208 9.975 100.208 11.325C100.208 12.6417 99.8999 13.8167 99.2832 14.85C98.6832 15.8833 97.8415 16.7 96.7582 17.3C95.6915 17.8833 94.4665 18.175 93.0832 18.175ZM93.0832 15.5C93.8499 15.5 94.5332 15.3333 95.1332 15C95.7332 14.6667 96.1999 14.1833 96.5332 13.55C96.8832 12.9167 97.0582 12.175 97.0582 11.325C97.0582 10.4583 96.8832 9.71667 96.5332 9.1C96.1999 8.46667 95.7332 7.98333 95.1332 7.65C94.5332 7.31667 93.8582 7.15 93.1082 7.15C92.3415 7.15 91.6582 7.31667 91.0582 7.65C90.4749 7.98333 90.0082 8.46667 89.6582 9.1C89.3082 9.71667 89.1332 10.4583 89.1332 11.325C89.1332 12.175 89.3082 12.9167 89.6582 13.55C90.0082 14.1833 90.4749 14.6667 91.0582 15C91.6582 15.3333 92.3332 15.5 93.0832 15.5Z" fill="white"/>
</svg>
