<svg width="94" height="23" viewBox="0 0 94 23" fill="none" xmlns="http://www.w3.org/2000/svg">
<path d="M0.726 22V1.7H3.829L12.703 16.519H11.079L19.808 1.7H22.911L22.94 22H19.373L19.344 7.297H20.098L12.674 19.68H10.992L3.452 7.297H4.322V22H0.726ZM35.0353 22.203C33.4499 22.203 32.0386 21.8647 30.8013 21.188C29.5639 20.492 28.5876 19.5447 27.8723 18.346C27.1569 17.1473 26.7993 15.7843 26.7993 14.257C26.7993 12.7103 27.1569 11.3473 27.8723 10.168C28.5876 8.96933 29.5639 8.03167 30.8013 7.355C32.0386 6.67833 33.4499 6.34 35.0353 6.34C36.6399 6.34 38.0609 6.67833 39.2983 7.355C40.5549 8.03167 41.5313 8.95967 42.2273 10.139C42.9426 11.3183 43.3003 12.691 43.3003 14.257C43.3003 15.7843 42.9426 17.1473 42.2273 18.346C41.5313 19.5447 40.5549 20.492 39.2983 21.188C38.0609 21.8647 36.6399 22.203 35.0353 22.203ZM35.0353 19.1C35.9246 19.1 36.7173 18.9067 37.4133 18.52C38.1093 18.1333 38.6506 17.5727 39.0373 16.838C39.4433 16.1033 39.6463 15.243 39.6463 14.257C39.6463 13.2517 39.4433 12.3913 39.0373 11.676C38.6506 10.9413 38.1093 10.3807 37.4133 9.994C36.7173 9.60733 35.9343 9.414 35.0643 9.414C34.1749 9.414 33.3823 9.60733 32.6863 9.994C32.0096 10.3807 31.4683 10.9413 31.0623 11.676C30.6563 12.3913 30.4533 13.2517 30.4533 14.257C30.4533 15.243 30.6563 16.1033 31.0623 16.838C31.4683 17.5727 32.0096 18.1333 32.6863 18.52C33.3823 18.9067 34.1653 19.1 35.0353 19.1ZM50.4599 22L43.8189 6.514H47.5889L53.3019 20.173H51.4459L57.3619 6.514H60.8419L54.2009 22H50.4599ZM63.3046 22.203C62.6473 22.203 62.0866 21.9807 61.6226 21.536C61.1586 21.072 60.9266 20.492 60.9266 19.796C60.9266 19.0613 61.1586 18.4813 61.6226 18.056C62.0866 17.6113 62.6473 17.389 63.3046 17.389C63.9619 17.389 64.5226 17.6113 64.9866 18.056C65.4506 18.4813 65.6826 19.0613 65.6826 19.796C65.6826 20.492 65.4506 21.072 64.9866 21.536C64.5226 21.9807 63.9619 22.203 63.3046 22.203ZM69.7177 22V5.644C69.7177 4.02 70.1913 2.72467 71.1387 1.758C72.1053 0.772 73.478 0.279 75.2567 0.279C75.8947 0.279 76.494 0.346666 77.0547 0.481999C77.6347 0.617333 78.118 0.829999 78.5047 1.12L77.5187 3.846C77.248 3.63333 76.9387 3.47867 76.5907 3.382C76.2427 3.266 75.885 3.208 75.5177 3.208C74.7637 3.208 74.1933 3.42067 73.8067 3.846C73.42 4.252 73.2267 4.87067 73.2267 5.702V7.442L73.3427 9.066V22H69.7177ZM67.1657 9.53V6.63H77.4897V9.53H67.1657ZM77.8128 22L84.6278 13.126L84.5698 15.069L78.0738 6.514H82.1048L86.6578 12.604H85.1208L89.7028 6.514H93.6178L87.0638 15.069L87.0928 13.126L93.8788 22H89.7898L85.0048 15.533L86.5128 15.736L81.8148 22H77.8128Z" fill="white"/>
</svg>
