<svg width="17" height="17" viewBox="0 0 17 17" fill="none" xmlns="http://www.w3.org/2000/svg">
    <path d="M9.6875 15.625L9.6875 9.6875L15.625 9.6875C16.2805 9.6875 16.8125 9.1555 16.8125 8.5C16.8125 7.8445 16.2805 7.3125 15.625 7.3125L9.6875 7.3125V1.375C9.6875 0.7195 9.1555 0.1875 8.5 0.1875C7.8445 0.1875 7.3125 0.7195 7.3125 1.375L7.3125 7.3125L1.375 7.3125C0.7195 7.3125 0.1875 7.8445 0.1875 8.5C0.1875 9.1555 0.7195 9.6875 1.375 9.6875H7.3125V15.625C7.3125 16.2805 7.8445 16.8125 8.5 16.8125C9.1555 16.8125 9.6875 16.2805 9.6875 15.625Z" fill="white"/>
</svg>
