<svg xmlns="http://www.w3.org/2000/svg" width="512" height="512" viewBox="0 0 512 512" fill="none"><path d="M181 451V482H136C127.709 482 121 488.709 121 497C121 505.291 127.709 512 136 512H376C384.291 512 391 505.291 391 497C391 488.709 384.291 482 376 482H331V451H181ZM15 421H497C505.291 421 512 414.291 512 406V76C512 67.709 505.291 61 497 61H466V316C466 340.814 445.814 361 421 361H91C66.186 361 46 340.814 46 316V61H15C6.709 61 0 67.709 0 76V406C0 414.291 6.709 421 15 421Z" fill="white"></path><path d="M348.227 232.562L309.73 219.716L322.562 258.227L348.227 232.562ZM436 15C436 6.709 429.291 0 421 0H91C82.709 0 76 6.709 76 15V121H436V15ZM136 76C127.716 76 121 69.284 121 61C121 52.714 127.716 46 136 46C144.284 46 151 52.714 151 61C151 69.284 144.284 76 136 76ZM196 76C187.716 76 181 69.284 181 61C181 52.714 187.716 46 196 46C204.284 46 211 52.714 211 61C211 69.284 204.284 76 196 76ZM256 76C247.716 76 241 69.284 241 61C241 52.714 247.716 46 256 46C264.284 46 271 52.714 271 61C271 69.284 264.284 76 256 76Z" fill="white"></path><path d="M76 316C76 324.291 82.709 331 91 331H421C429.291 331 436 324.291 436 316V151H76V316ZM275.395 185.395C279.438 181.411 285.385 179.96 290.747 181.777L380.747 211.777C385.669 213.418 389.419 217.49 390.591 222.558C391.185 225.045 391.13 227.642 390.432 230.102C389.735 232.562 388.418 234.801 386.607 236.606L367.211 256L386.606 275.395C392.465 281.254 392.465 290.747 386.606 296.606C380.747 302.465 371.254 302.465 365.395 296.606L346 277.211L326.605 296.606C322.989 300.222 317.721 301.799 312.543 300.605C307.504 299.404 303.402 295.683 301.762 290.747L271.762 200.747C270.885 198.103 270.761 195.267 271.403 192.556C272.044 189.845 273.426 187.366 275.395 185.395ZM136 181H226C234.291 181 241 187.709 241 196C241 204.291 234.291 211 226 211H136C127.709 211 121 204.291 121 196C121 187.709 127.709 181 136 181ZM136 241H226C234.291 241 241 247.709 241 256C241 264.291 234.291 271 226 271H136C127.709 271 121 264.291 121 256C121 247.709 127.709 241 136 241Z" fill="white"></path></svg>