<svg width="19" height="14" viewBox="0 0 19 14" fill="none" xmlns="http://www.w3.org/2000/svg">
<path fill-rule="evenodd" clip-rule="evenodd" d="M5.89926 0.143883C4.38009 0.302678 2.95086 0.994065 1.89008 2.08329C1.26231 2.72786 0.858002 3.32653 0.522557 4.10835C0.111739 5.06574 -0.0370996 6.00461 0.00765816 7.35581C0.0491849 8.60913 0.260632 9.44143 0.785012 10.4155C1.5692 11.8723 2.89514 13.0008 4.44265 13.5287C5.41386 13.8599 5.26381 13.8501 9.67978 13.8703L13.7252 13.8889L13.6259 13.7354C13.5713 13.651 13.038 12.8992 12.4408 12.0647L11.3549 10.5474L8.89194 10.5278C6.58689 10.5094 6.40685 10.5011 6.08428 10.3993C4.67104 9.95284 3.74665 8.93559 3.51227 7.56879C3.2085 5.79752 4.3178 4.08245 6.08444 3.5919C6.44764 3.49106 6.62312 3.48214 8.24202 3.48214H10.0043V1.7838V0.0854492L8.16363 0.0925081C7.15126 0.0963825 6.13232 0.119522 5.89926 0.143883ZM11.5403 1.77053V3.45561L13.1618 3.4408C15.2615 3.42169 15.459 3.46734 15.9599 4.08739C16.1073 4.26986 16.1219 4.32261 16.1211 4.66796C16.1204 4.98884 16.0982 5.08193 15.9784 5.26769C15.9004 5.38859 15.762 5.5407 15.6709 5.60571C15.3307 5.84842 15.1317 5.87044 13.2798 5.87044H11.5403V7.27105V8.67165L11.7671 8.98266C11.8919 9.15372 12.4089 9.89075 12.9161 10.6205C13.4232 11.3503 14.1385 12.3772 14.5056 12.9027L15.173 13.858L16.9065 13.872L18.6401 13.8859L18.4585 13.6066C18.0058 12.9099 15.407 8.65838 15.407 8.61444C15.407 8.59878 15.5233 8.56099 15.6656 8.53042C17.1027 8.22159 18.3461 7.08529 18.8001 5.6659C19.1889 4.45052 19.0032 3.08717 18.3074 2.049C17.9808 1.56163 17.2947 0.938656 16.8012 0.681409C15.8335 0.176947 15.2527 0.0854492 13.0178 0.0854492H11.5403L11.5403 1.77053ZM7.21577 5.94724C7.12419 5.98715 6.95369 6.10635 6.83689 6.21207C6.06462 6.91116 6.32327 8.20434 7.30476 8.55128C7.47802 8.61253 7.80568 8.63025 8.76619 8.63025H10.0043V7.25035V5.87044L8.69331 5.87251C7.70435 5.8741 7.34147 5.89241 7.21577 5.94724Z" fill="white"/>
</svg>
