<svg width="36" height="35" viewBox="0 0 36 35" fill="none" xmlns="http://www.w3.org/2000/svg">
<g clip-path="url(#clip0_74_4)">
<mask id="mask0_74_4" style="mask-type:luminance" maskUnits="userSpaceOnUse" x="0" y="0" width="36" height="35">
<path d="M35.5 0H0.5V35H35.5V0Z" fill="white"/>
</mask>
<g mask="url(#mask0_74_4)">
<mask id="mask1_74_4" style="mask-type:luminance" maskUnits="userSpaceOnUse" x="0" y="0" width="36" height="35">
<path d="M35.5 0H0.5V35H35.5V0Z" fill="white"/>
<path d="M24.3196 32.8124H11.6807V25.5208H24.3196V32.8124Z" fill="white"/>
<path d="M10.5352 25.612L10.2291 25.1757C9.52995 24.1782 9.02901 23.0557 8.75346 21.8692H5.94092V17.6017H8.75318C8.99053 16.5772 9.39672 15.5993 9.95508 14.7082L7.96418 12.7173L10.9816 9.69981L12.9725 11.6908C13.8637 11.1323 14.8416 10.7261 15.8662 10.4887V7.67651H20.1335V10.4887C21.1581 10.726 22.136 11.1323 23.0272 11.6908L25.0181 9.69981L28.0356 12.7173L26.0446 14.7082C26.603 15.5993 27.0092 16.5772 27.2466 17.6017H30.0589V21.8692H27.2462C26.9707 23.0557 26.4698 24.1782 25.7707 25.1757L25.4645 25.612H10.5352Z" fill="white"/>
<path d="M21.1589 6.65112H14.8408V9.70679C14.2556 9.89177 13.6877 10.1277 13.1437 10.4118L12.4317 9.69982L10.9816 8.24971L9.53149 9.69975L7.96414 11.2671L6.51404 12.7172L7.96414 14.1673L8.67611 14.8793C8.392 15.4233 8.15616 15.9912 7.97118 16.5764H4.91553V22.8945H7.97194C8.29555 23.9179 8.77366 24.8859 9.38971 25.7648L10.0022 26.6374H25.9974L26.6099 25.7648C27.226 24.8859 27.7042 23.9179 28.0278 22.8945H31.0842V16.5764H28.0285C27.8435 15.9912 27.6076 15.4233 27.3235 14.8793L28.0356 14.1673L29.4857 12.7172L28.0356 11.2671L26.4682 9.69975L25.0181 8.24971L23.568 9.69982L22.856 10.4118C22.312 10.1277 21.7441 9.89177 21.1589 9.70679V8.70191V6.65112ZM19.1081 8.70191V11.344C20.6143 11.5419 21.9966 12.1374 23.1468 13.0212L25.0181 11.1499L26.5854 12.7172L24.7141 14.5885C25.5979 15.7386 26.1934 17.121 26.3912 18.6271H29.0334V20.8437H26.3912C26.2101 22.2228 25.6953 23.4982 24.9314 24.5866H11.0683C10.3044 23.4982 9.78961 22.2228 9.60846 20.8437H6.9663V18.6271H9.60846C9.80629 17.121 10.4018 15.7386 11.2856 14.5885L9.41425 12.7172L10.9816 11.1499L12.8529 13.0212C14.003 12.1374 15.3854 11.5419 16.8916 11.344V8.70191H19.1081Z" fill="black"/>
<path d="M18.0002 23.696C15.8082 23.696 14.0249 21.9127 14.0249 19.7207C14.0249 17.5287 15.8082 15.7454 18.0002 15.7454C20.1922 15.7454 21.9754 17.5287 21.9754 19.7207C21.9754 21.9127 20.1922 23.696 18.0002 23.696Z" fill="white"/>
<path d="M18.0002 14.72C15.2428 14.72 12.9995 16.9633 12.9995 19.7207C12.9995 22.4781 15.2428 24.7214 18.0002 24.7214C20.7575 24.7214 23.0008 22.4781 23.0008 19.7207C23.0008 16.9633 20.7575 14.72 18.0002 14.72ZM18.0002 16.7708C19.6294 16.7708 20.95 18.0915 20.95 19.7207C20.95 21.3499 19.6294 22.6706 18.0002 22.6706C16.371 22.6706 15.0503 21.3499 15.0503 19.7207C15.0503 18.0915 16.371 16.7708 18.0002 16.7708Z" fill="black"/>
</mask>
<g mask="url(#mask1_74_4)">
<path d="M24.3196 32.8124H11.6807V25.5208H24.3196V32.8124Z" fill="white"/>
<mask id="mask2_74_4" style="mask-type:luminance" maskUnits="userSpaceOnUse" x="0" y="0" width="36" height="35">
<path d="M0.5 0H35.4999V34.9999H0.5V0Z" fill="white"/>
</mask>
<g mask="url(#mask2_74_4)">
<path d="M1.52539 22.6042V7.01829C1.52539 4.75309 3.36172 2.91675 5.62694 2.91675H30.373C32.6382 2.91675 34.4745 4.75309 34.4745 7.01829V22.6042" fill="white"/>
<path d="M1.52539 22.6042V7.01829C1.52539 4.75309 3.36172 2.91675 5.62694 2.91675H30.373C32.6382 2.91675 34.4745 4.75309 34.4745 7.01829V22.6042" stroke="white" stroke-width="2.05077" stroke-miterlimit="10"/>
<path d="M10.5353 25.612L10.2291 25.1758C9.53 24.1783 9.02899 23.0557 8.7535 21.8692H5.94092V17.6018H8.75323C8.9905 16.5772 9.3967 15.5994 9.95512 14.7082L7.96416 12.7173L10.9816 9.69981L12.9726 11.6908C13.8637 11.1324 14.8417 10.7261 15.8662 10.4887V7.67651H20.1335V10.4887C21.1581 10.7261 22.136 11.1323 23.0271 11.6908L25.0181 9.69981L28.0356 12.7173L26.0446 14.7082C26.603 15.5994 27.0092 16.5772 27.2466 17.6018H30.0589V21.8692H27.2462C26.9707 23.0557 26.4698 24.1783 25.7707 25.1758L25.4645 25.612H10.5353Z" fill="white"/>
<path d="M21.1589 6.65112H14.8408V9.70676C14.2556 9.89174 13.6877 10.1276 13.1436 10.4117L12.4317 9.69979L10.9816 8.24968L9.53151 9.69972L7.96416 11.2671L6.51404 12.7172L7.96416 14.1673L8.67613 14.8793C8.39203 15.4233 8.15612 15.9912 7.9712 16.5764H4.91553V22.8945H7.97196C8.2955 23.9179 8.77361 24.8858 9.38973 25.7648L10.0022 26.6373H25.9974L26.6099 25.7648C27.2261 24.8858 27.7042 23.9179 28.0278 22.8945H31.0842V16.5764H28.0285C27.8435 15.9912 27.6076 15.4233 27.3235 14.8793L28.0356 14.1673L29.4857 12.7172L28.0356 11.2671L26.4682 9.69972L25.0181 8.24968L23.568 9.69979L22.8561 10.4117C22.312 10.1276 21.7441 9.89174 21.1589 9.70676V8.70188V6.65112ZM19.1081 8.70188V11.344C20.6143 11.5419 21.9966 12.1374 23.1468 13.0212L25.0181 11.1499L26.5855 12.7172L24.7141 14.5884C25.5979 15.7386 26.1934 17.121 26.3913 18.6272H29.0334V20.8437H26.3913C26.2101 22.2229 25.6954 23.4983 24.9314 24.5866H11.0683C10.3044 23.4983 9.78963 22.2229 9.60848 20.8437H6.96631V18.6272H9.60848C9.80631 17.121 10.4019 15.7386 11.2856 14.5884L9.41427 12.7172L10.9816 11.1499L12.8529 13.0212C14.003 12.1374 15.3854 11.5419 16.8916 11.344V8.70188H19.1081Z" fill="white"/>
<path d="M17.9997 23.696C15.8077 23.696 14.0244 21.9127 14.0244 19.7207C14.0244 17.5287 15.8077 15.7454 17.9997 15.7454C20.1917 15.7454 21.975 17.5287 21.975 19.7207C21.975 21.9127 20.1917 23.696 17.9997 23.696Z" fill="white"/>
<path d="M18.0001 14.72C15.2427 14.72 12.9995 16.9632 12.9995 19.7206C12.9995 22.478 15.2427 24.7214 18.0001 24.7214C20.7575 24.7214 23.0008 22.478 23.0008 19.7206C23.0008 16.9632 20.7575 14.72 18.0001 14.72ZM18.0001 16.7707C19.6293 16.7707 20.95 18.0915 20.95 19.7206C20.95 21.3498 19.6293 22.6706 18.0001 22.6706C16.3709 22.6706 15.0502 21.3498 15.0502 19.7206C15.0502 18.0915 16.3709 16.7707 18.0001 16.7707Z" fill="white"/>
<path d="M34.4745 27.7082H1.52539V22.604H34.4745V27.7082Z" fill="white" stroke="white" stroke-width="2.05077" stroke-miterlimit="10"/>
</g>
</g>
</g>
</g>
<defs>
<clipPath id="clip0_74_4">
<rect width="35" height="35" fill="white" transform="translate(0.5)"/>
</clipPath>
</defs>
</svg>
