<svg width="38" height="6" viewBox="0 0 38 6" fill="none" xmlns="http://www.w3.org/2000/svg">
<path d="M2.561 5.098C2.20167 5.098 1.875 5.03733 1.581 4.916C1.29167 4.79 1.05133 4.61033 0.86 4.377L1.616 3.481C1.74667 3.649 1.882 3.77733 2.022 3.866C2.162 3.95 2.309 3.992 2.463 3.992C2.87367 3.992 3.079 3.754 3.079 3.278V1.171H1.385V0.0999997H4.451V3.194C4.451 3.83333 4.29 4.31167 3.968 4.629C3.646 4.94167 3.177 5.098 2.561 5.098ZM4.69595 5L6.85895 0.0999997H8.22395L10.3939 5H8.95195L7.25795 0.779H7.80395L6.10995 5H4.69595ZM5.87895 4.048L6.23595 3.026H8.62995L8.98695 4.048H5.87895ZM10.7869 5V0.0999997H13.0269C13.4749 0.0999997 13.8599 0.172333 14.1819 0.317C14.5085 0.461667 14.7605 0.671666 14.9379 0.947C15.1152 1.21767 15.2039 1.53967 15.2039 1.913C15.2039 2.28167 15.1152 2.60133 14.9379 2.872C14.7605 3.138 14.5085 3.34333 14.1819 3.488C13.8599 3.628 13.4749 3.698 13.0269 3.698H11.5569L12.1729 3.117V5H10.7869ZM13.8179 5L12.5999 3.215H14.0769L15.3019 5H13.8179ZM12.1729 3.264L11.5569 2.627H12.9429C13.2322 2.627 13.4469 2.564 13.5869 2.438C13.7315 2.312 13.8039 2.137 13.8039 1.913C13.8039 1.68433 13.7315 1.507 13.5869 1.381C13.4469 1.255 13.2322 1.192 12.9429 1.192H11.5569L12.1729 0.555V3.264ZM15.3805 5L17.5435 0.0999997H18.9085L21.0785 5H19.6365L17.9425 0.779H18.4885L16.7945 5H15.3805ZM16.5635 4.048L16.9205 3.026H19.3145L19.6715 4.048H16.5635ZM22.2684 5V1.199H20.7634V0.0999997H25.1524V1.199H23.6544V5H22.2684Z" fill="white"/>
<path d="M25.9265 5.063C25.7025 5.063 25.5135 4.98833 25.3595 4.839C25.2055 4.68967 25.1285 4.50067 25.1285 4.272C25.1285 4.034 25.2055 3.845 25.3595 3.705C25.5135 3.56033 25.7025 3.488 25.9265 3.488C26.1505 3.488 26.3395 3.56033 26.4935 3.705C26.6475 3.845 26.7245 4.034 26.7245 4.272C26.7245 4.50067 26.6475 4.68967 26.4935 4.839C26.3395 4.98833 26.1505 5.063 25.9265 5.063ZM29.7182 5.098C29.3308 5.098 28.9715 5.03733 28.6402 4.916C28.3135 4.79 28.0288 4.61267 27.7862 4.384C27.5482 4.15533 27.3615 3.887 27.2262 3.579C27.0908 3.26633 27.0232 2.92333 27.0232 2.55C27.0232 2.17667 27.0908 1.836 27.2262 1.528C27.3615 1.21533 27.5482 0.944666 27.7862 0.716C28.0288 0.487333 28.3135 0.312333 28.6402 0.191C28.9715 0.0649997 29.3308 0.00199968 29.7182 0.00199968C30.1708 0.00199968 30.5745 0.0813331 30.9292 0.24C31.2885 0.398667 31.5872 0.627333 31.8252 0.926L30.9432 1.724C30.7845 1.53733 30.6095 1.395 30.4182 1.297C30.2315 1.199 30.0215 1.15 29.7882 1.15C29.5875 1.15 29.4032 1.18267 29.2352 1.248C29.0672 1.31333 28.9225 1.409 28.8012 1.535C28.6845 1.65633 28.5912 1.80333 28.5212 1.976C28.4558 2.14867 28.4232 2.34 28.4232 2.55C28.4232 2.76 28.4558 2.95133 28.5212 3.124C28.5912 3.29667 28.6845 3.446 28.8012 3.572C28.9225 3.69333 29.0672 3.78667 29.2352 3.852C29.4032 3.91733 29.5875 3.95 29.7882 3.95C30.0215 3.95 30.2315 3.901 30.4182 3.803C30.6095 3.705 30.7845 3.56267 30.9432 3.376L31.8252 4.174C31.5872 4.468 31.2885 4.69667 30.9292 4.86C30.5745 5.01867 30.1708 5.098 29.7182 5.098ZM34.8116 5.098C34.4196 5.098 34.0579 5.035 33.7266 4.909C33.3953 4.783 33.1059 4.60567 32.8586 4.377C32.6159 4.14367 32.4269 3.873 32.2916 3.565C32.1563 3.257 32.0886 2.91867 32.0886 2.55C32.0886 2.18133 32.1563 1.843 32.2916 1.535C32.4269 1.227 32.6159 0.958666 32.8586 0.73C33.1059 0.496667 33.3953 0.317 33.7266 0.191C34.0579 0.0649997 34.4196 0.00199968 34.8116 0.00199968C35.2083 0.00199968 35.5699 0.0649997 35.8966 0.191C36.2279 0.317 36.5149 0.496667 36.7576 0.73C37.0003 0.958666 37.1893 1.227 37.3246 1.535C37.4646 1.843 37.5346 2.18133 37.5346 2.55C37.5346 2.91867 37.4646 3.25933 37.3246 3.572C37.1893 3.88 37.0003 4.14833 36.7576 4.377C36.5149 4.60567 36.2279 4.783 35.8966 4.909C35.5699 5.035 35.2083 5.098 34.8116 5.098ZM34.8116 3.95C34.9983 3.95 35.1709 3.91733 35.3296 3.852C35.4929 3.78667 35.6329 3.69333 35.7496 3.572C35.8709 3.446 35.9643 3.29667 36.0296 3.124C36.0996 2.95133 36.1346 2.76 36.1346 2.55C36.1346 2.33533 36.0996 2.144 36.0296 1.976C35.9643 1.80333 35.8709 1.65633 35.7496 1.535C35.6329 1.409 35.4929 1.31333 35.3296 1.248C35.1709 1.18267 34.9983 1.15 34.8116 1.15C34.6249 1.15 34.4499 1.18267 34.2866 1.248C34.1279 1.31333 33.9879 1.409 33.8666 1.535C33.7499 1.65633 33.6566 1.80333 33.5866 1.976C33.5213 2.144 33.4886 2.33533 33.4886 2.55C33.4886 2.76 33.5213 2.95133 33.5866 3.124C33.6566 3.29667 33.7499 3.446 33.8666 3.572C33.9879 3.69333 34.1279 3.78667 34.2866 3.852C34.4499 3.91733 34.6249 3.95 34.8116 3.95Z" fill="#5A43E8"/>
</svg>
