<svg width="29" height="8" viewBox="0 0 29 8" fill="none" xmlns="http://www.w3.org/2000/svg">
<path d="M8.38841 0.52C8.90041 0.52 9.35241 0.62 9.74441 0.819999C10.1444 1.02 10.4564 1.328 10.6804 1.744C10.9044 2.152 11.0164 2.68 11.0164 3.328V7H9.51641V3.52C9.51641 2.952 9.39241 2.528 9.14441 2.248C8.89641 1.968 8.54041 1.828 8.07641 1.828C7.74841 1.828 7.45641 1.9 7.20041 2.044C6.95241 2.188 6.75641 2.4 6.61241 2.68C6.47641 2.96 6.40841 3.316 6.40841 3.748V7H4.90841V3.52C4.90841 2.952 4.78441 2.528 4.53641 2.248C4.28841 1.968 3.93241 1.828 3.46841 1.828C3.14041 1.828 2.84841 1.9 2.59241 2.044C2.34441 2.188 2.14841 2.4 2.00441 2.68C1.86841 2.96 1.80041 3.316 1.80041 3.748V7H0.300406V0.592H1.72841V2.296L1.47641 1.792C1.69241 1.376 2.00441 1.06 2.41241 0.844C2.82841 0.628 3.30041 0.52 3.82841 0.52C4.42841 0.52 4.94841 0.668 5.38841 0.964C5.83641 1.26 6.13241 1.708 6.27641 2.308L5.68841 2.104C5.89641 1.624 6.24041 1.24 6.72041 0.952C7.20041 0.664 7.75641 0.52 8.38841 0.52ZM15.8249 7.084C15.1689 7.084 14.5849 6.944 14.0729 6.664C13.5609 6.376 13.1569 5.984 12.8609 5.488C12.5649 4.992 12.4169 4.428 12.4169 3.796C12.4169 3.156 12.5649 2.592 12.8609 2.104C13.1569 1.608 13.5609 1.22 14.0729 0.94C14.5849 0.66 15.1689 0.52 15.8249 0.52C16.4889 0.52 17.0769 0.66 17.5889 0.94C18.1089 1.22 18.5129 1.604 18.8009 2.092C19.0969 2.58 19.2449 3.148 19.2449 3.796C19.2449 4.428 19.0969 4.992 18.8009 5.488C18.5129 5.984 18.1089 6.376 17.5889 6.664C17.0769 6.944 16.4889 7.084 15.8249 7.084ZM15.8249 5.8C16.1929 5.8 16.5209 5.72 16.8089 5.56C17.0969 5.4 17.3209 5.168 17.4809 4.864C17.6489 4.56 17.7329 4.204 17.7329 3.796C17.7329 3.38 17.6489 3.024 17.4809 2.728C17.3209 2.424 17.0969 2.192 16.8089 2.032C16.5209 1.872 16.1969 1.792 15.8369 1.792C15.4689 1.792 15.1409 1.872 14.8529 2.032C14.5729 2.192 14.3489 2.424 14.1809 2.728C14.0129 3.024 13.9289 3.38 13.9289 3.796C13.9289 4.204 14.0129 4.56 14.1809 4.864C14.3489 5.168 14.5729 5.4 14.8529 5.56C15.1409 5.72 15.4649 5.8 15.8249 5.8ZM22.2075 7L19.4595 0.592H21.0195L23.3835 6.244H22.6155L25.0635 0.592H26.5035L23.7555 7H22.2075ZM27.5226 7.084C27.2506 7.084 27.0186 6.992 26.8266 6.808C26.6346 6.616 26.5386 6.376 26.5386 6.088C26.5386 5.784 26.6346 5.544 26.8266 5.368C27.0186 5.184 27.2506 5.092 27.5226 5.092C27.7946 5.092 28.0266 5.184 28.2186 5.368C28.4106 5.544 28.5066 5.784 28.5066 6.088C28.5066 6.376 28.4106 6.616 28.2186 6.808C28.0266 6.992 27.7946 7.084 27.5226 7.084Z" fill="white"/>
</svg>
